<?xml version="1.0" encoding="UTF-8" standalone="no"?>
<svg
   id="svg3558"
   style="stroke-linecap:round"
   sodipodi:docname="nacar-logo.svg"
   version="1.1"
   inkscape:version="1.1.1 (3bf5ae0d25, 2021-09-20)"
   viewBox="0 0 43.518337 33.102457"
   width="43.518337"
   height="33.102455"
   inkscape:export-filename="/home/alberto/Downloads/nacar/img/nacar-logo.png"
   inkscape:export-xdpi="1750.09"
   inkscape:export-ydpi="1750.09"
   xmlns:inkscape="http://www.inkscape.org/namespaces/inkscape"
   xmlns:sodipodi="http://sodipodi.sourceforge.net/DTD/sodipodi-0.dtd"
   xmlns:xlink="http://www.w3.org/1999/xlink"
   xmlns="http://www.w3.org/2000/svg"
   xmlns:svg="http://www.w3.org/2000/svg"
   xmlns:rdf="http://www.w3.org/1999/02/22-rdf-syntax-ns#">
  <defs
     id="defs21">
    <clipPath
       clipPathUnits="userSpaceOnUse"
       id="clipPath39771-7-4-2">
      <path
         style="vector-effect:none;fill:#1894ea;fill-opacity:1;fill-rule:nonzero;stroke:#1763e1;stroke-width:0.713224;stroke-linecap:butt;stroke-linejoin:miter;stroke-miterlimit:98;stroke-dasharray:none;stroke-dashoffset:40;stroke-opacity:1;paint-order:normal"
         d="m 236.45105,-35.889583 c 6.41914,8.3e-5 11.6346,8.3e-5 20.0594,0 8.42511,8.3e-5 13.64049,8.3e-5 20.05947,0 9e-5,6.419143 9e-5,11.634605 0,20.059476 9e-5,8.4250376 9e-5,13.6404166 0,20.0593975 -6.41898,8.3e-5 -11.63436,8.3e-5 -20.05947,0 -8.4248,8.3e-5 -13.64026,8.3e-5 -20.0594,0 8e-5,-6.4189809 8e-5,-11.6343599 0,-20.0593975 8e-5,-8.424871 8e-5,-13.640333 0,-20.059476 z"
         id="path39773-8-3-6"
         inkscape:connector-curvature="0"
         sodipodi:nodetypes="ccccccccc" />
    </clipPath>
    <clipPath
       clipPathUnits="userSpaceOnUse"
       id="clipPath39767-4-0-1">
      <path
         style="vector-effect:none;fill:#1894ea;fill-opacity:1;fill-rule:nonzero;stroke:#1763e1;stroke-width:0.713224;stroke-linecap:butt;stroke-linejoin:miter;stroke-miterlimit:98;stroke-dasharray:none;stroke-dashoffset:40;stroke-opacity:1;paint-order:normal"
         d="m 236.45105,-35.889583 c 6.41914,8.3e-5 11.6346,8.3e-5 20.0594,0 8.42511,8.3e-5 13.64049,8.3e-5 20.05947,0 9e-5,6.419143 9e-5,11.634605 0,20.059476 9e-5,8.4250376 9e-5,13.6404166 0,20.0593975 -6.41898,8.3e-5 -11.63436,8.3e-5 -20.05947,0 -8.4248,8.3e-5 -13.64026,8.3e-5 -20.0594,0 8e-5,-6.4189809 8e-5,-11.6343599 0,-20.0593975 8e-5,-8.424871 8e-5,-13.640333 0,-20.059476 z"
         id="path39769-5-7-0"
         inkscape:connector-curvature="0"
         sodipodi:nodetypes="ccccccccc" />
    </clipPath>
    <clipPath
       clipPathUnits="userSpaceOnUse"
       id="clipPath39763-0-8-6">
      <path
         style="vector-effect:none;fill:#1894ea;fill-opacity:1;fill-rule:nonzero;stroke:#1763e1;stroke-width:0.713224;stroke-linecap:butt;stroke-linejoin:miter;stroke-miterlimit:98;stroke-dasharray:none;stroke-dashoffset:40;stroke-opacity:1;paint-order:normal"
         d="m 236.45105,-35.889583 c 6.41914,8.3e-5 11.6346,8.3e-5 20.0594,0 8.42511,8.3e-5 13.64049,8.3e-5 20.05947,0 9e-5,6.419143 9e-5,11.634605 0,20.059476 9e-5,8.4250376 9e-5,13.6404166 0,20.0593975 -6.41898,8.3e-5 -11.63436,8.3e-5 -20.05947,0 -8.4248,8.3e-5 -13.64026,8.3e-5 -20.0594,0 8e-5,-6.4189809 8e-5,-11.6343599 0,-20.0593975 8e-5,-8.424871 8e-5,-13.640333 0,-20.059476 z"
         id="path39765-3-6-1"
         inkscape:connector-curvature="0"
         sodipodi:nodetypes="ccccccccc" />
    </clipPath>
    <clipPath
       clipPathUnits="userSpaceOnUse"
       id="clipPath39759-6-8-5">
      <path
         style="vector-effect:none;fill:#1894ea;fill-opacity:1;fill-rule:nonzero;stroke:#1763e1;stroke-width:0.713224;stroke-linecap:butt;stroke-linejoin:miter;stroke-miterlimit:98;stroke-dasharray:none;stroke-dashoffset:40;stroke-opacity:1;paint-order:normal"
         d="m 236.45105,-35.889583 c 6.41914,8.3e-5 11.6346,8.3e-5 20.0594,0 8.42511,8.3e-5 13.64049,8.3e-5 20.05947,0 9e-5,6.419143 9e-5,11.634605 0,20.059476 9e-5,8.4250376 9e-5,13.6404166 0,20.0593975 -6.41898,8.3e-5 -11.63436,8.3e-5 -20.05947,0 -8.4248,8.3e-5 -13.64026,8.3e-5 -20.0594,0 8e-5,-6.4189809 8e-5,-11.6343599 0,-20.0593975 8e-5,-8.424871 8e-5,-13.640333 0,-20.059476 z"
         id="path39761-1-8-9"
         inkscape:connector-curvature="0"
         sodipodi:nodetypes="ccccccccc" />
    </clipPath>
    <clipPath
       clipPathUnits="userSpaceOnUse"
       id="clipPath4324">
      <path
         id="path4326"
         style="vector-effect:none;fill:#1894ea;fill-opacity:1;fill-rule:nonzero;stroke:#1763e1;stroke-width:0.394086;stroke-linecap:butt;stroke-linejoin:miter;stroke-miterlimit:98;stroke-dasharray:none;stroke-dashoffset:40;stroke-opacity:1;paint-order:normal"
         d="m 284.53223,253.19791 c -5.3618,0.29166 -8.17904,4.37372 -8.17904,4.37372 -0.22145,0.13038 1.97995,0.28628 3.95204,0.73205 1.80273,0.40748 3.37488,1.11255 3.92902,1.46527 2.4111,1.53474 3.03515,3.15313 2.74128,3.48188 -1.17492,1.31435 -0.51252,3.75076 0.94488,4.60785 1.19704,0.70397 3.87126,1.92551 6.77161,-1.21411 2.25164,-2.69598 2.00698,-6.88217 0.17453,-9.18556 -2.32949,-2.92817 -6.43398,-4.73449 -10.33432,-4.26112 z"
         sodipodi:nodetypes="ccsssscscc" />
    </clipPath>
    <clipPath
       clipPathUnits="userSpaceOnUse"
       id="clipPath4324-3">
      <path
         id="path4326-6"
         style="vector-effect:none;fill:#1894ea;fill-opacity:1;fill-rule:nonzero;stroke:#1763e1;stroke-width:0.394086;stroke-linecap:butt;stroke-linejoin:miter;stroke-miterlimit:98;stroke-dasharray:none;stroke-dashoffset:40;stroke-opacity:1;paint-order:normal"
         d="m 284.53223,253.19791 c -5.3618,0.29166 -8.17904,4.37372 -8.17904,4.37372 -0.22145,0.13038 1.97995,0.28628 3.95204,0.73205 1.80273,0.40748 3.37488,1.11255 3.92902,1.46527 2.4111,1.53474 3.03515,3.15313 2.74128,3.48188 -1.17492,1.31435 -0.51252,3.75076 0.94488,4.60785 1.19704,0.70397 3.87126,1.92551 6.77161,-1.21411 2.25164,-2.69598 2.00698,-6.88217 0.17453,-9.18556 -2.32949,-2.92817 -6.43398,-4.73449 -10.33432,-4.26112 z"
         sodipodi:nodetypes="ccsssscscc" />
    </clipPath>
    <clipPath
       clipPathUnits="userSpaceOnUse"
       id="clipPath39771-7-4-2-7">
      <path
         style="vector-effect:none;fill:#1894ea;fill-opacity:1;fill-rule:nonzero;stroke:#1763e1;stroke-width:0.713224;stroke-linecap:butt;stroke-linejoin:miter;stroke-miterlimit:98;stroke-dasharray:none;stroke-dashoffset:40;stroke-opacity:1;paint-order:normal"
         d="m 236.45105,-35.889583 c 6.41914,8.3e-5 11.6346,8.3e-5 20.0594,0 8.42511,8.3e-5 13.64049,8.3e-5 20.05947,0 9e-5,6.419143 9e-5,11.634605 0,20.059476 9e-5,8.4250376 9e-5,13.6404166 0,20.0593975 -6.41898,8.3e-5 -11.63436,8.3e-5 -20.05947,0 -8.4248,8.3e-5 -13.64026,8.3e-5 -20.0594,0 8e-5,-6.4189809 8e-5,-11.6343599 0,-20.0593975 8e-5,-8.424871 8e-5,-13.640333 0,-20.059476 z"
         id="path39773-8-3-6-5"
         inkscape:connector-curvature="0"
         sodipodi:nodetypes="ccccccccc" />
    </clipPath>
    <clipPath
       clipPathUnits="userSpaceOnUse"
       id="clipPath39767-4-0-1-3">
      <path
         style="vector-effect:none;fill:#1894ea;fill-opacity:1;fill-rule:nonzero;stroke:#1763e1;stroke-width:0.713224;stroke-linecap:butt;stroke-linejoin:miter;stroke-miterlimit:98;stroke-dasharray:none;stroke-dashoffset:40;stroke-opacity:1;paint-order:normal"
         d="m 236.45105,-35.889583 c 6.41914,8.3e-5 11.6346,8.3e-5 20.0594,0 8.42511,8.3e-5 13.64049,8.3e-5 20.05947,0 9e-5,6.419143 9e-5,11.634605 0,20.059476 9e-5,8.4250376 9e-5,13.6404166 0,20.0593975 -6.41898,8.3e-5 -11.63436,8.3e-5 -20.05947,0 -8.4248,8.3e-5 -13.64026,8.3e-5 -20.0594,0 8e-5,-6.4189809 8e-5,-11.6343599 0,-20.0593975 8e-5,-8.424871 8e-5,-13.640333 0,-20.059476 z"
         id="path39769-5-7-0-5"
         inkscape:connector-curvature="0"
         sodipodi:nodetypes="ccccccccc" />
    </clipPath>
    <clipPath
       clipPathUnits="userSpaceOnUse"
       id="clipPath39763-0-8-6-6">
      <path
         style="vector-effect:none;fill:#1894ea;fill-opacity:1;fill-rule:nonzero;stroke:#1763e1;stroke-width:0.713224;stroke-linecap:butt;stroke-linejoin:miter;stroke-miterlimit:98;stroke-dasharray:none;stroke-dashoffset:40;stroke-opacity:1;paint-order:normal"
         d="m 236.45105,-35.889583 c 6.41914,8.3e-5 11.6346,8.3e-5 20.0594,0 8.42511,8.3e-5 13.64049,8.3e-5 20.05947,0 9e-5,6.419143 9e-5,11.634605 0,20.059476 9e-5,8.4250376 9e-5,13.6404166 0,20.0593975 -6.41898,8.3e-5 -11.63436,8.3e-5 -20.05947,0 -8.4248,8.3e-5 -13.64026,8.3e-5 -20.0594,0 8e-5,-6.4189809 8e-5,-11.6343599 0,-20.0593975 8e-5,-8.424871 8e-5,-13.640333 0,-20.059476 z"
         id="path39765-3-6-1-2"
         inkscape:connector-curvature="0"
         sodipodi:nodetypes="ccccccccc" />
    </clipPath>
    <clipPath
       clipPathUnits="userSpaceOnUse"
       id="clipPath39759-6-8-5-9">
      <path
         style="vector-effect:none;fill:#1894ea;fill-opacity:1;fill-rule:nonzero;stroke:#1763e1;stroke-width:0.713224;stroke-linecap:butt;stroke-linejoin:miter;stroke-miterlimit:98;stroke-dasharray:none;stroke-dashoffset:40;stroke-opacity:1;paint-order:normal"
         d="m 236.45105,-35.889583 c 6.41914,8.3e-5 11.6346,8.3e-5 20.0594,0 8.42511,8.3e-5 13.64049,8.3e-5 20.05947,0 9e-5,6.419143 9e-5,11.634605 0,20.059476 9e-5,8.4250376 9e-5,13.6404166 0,20.0593975 -6.41898,8.3e-5 -11.63436,8.3e-5 -20.05947,0 -8.4248,8.3e-5 -13.64026,8.3e-5 -20.0594,0 8e-5,-6.4189809 8e-5,-11.6343599 0,-20.0593975 8e-5,-8.424871 8e-5,-13.640333 0,-20.059476 z"
         id="path39761-1-8-9-1"
         inkscape:connector-curvature="0"
         sodipodi:nodetypes="ccccccccc" />
    </clipPath>
    <clipPath
       clipPathUnits="userSpaceOnUse"
       id="clipPath4324-3-5-3">
      <path
         id="path4326-6-3-6"
         style="vector-effect:none;fill:#1894ea;fill-opacity:1;fill-rule:nonzero;stroke:#1763e1;stroke-width:0.394086;stroke-linecap:butt;stroke-linejoin:miter;stroke-miterlimit:98;stroke-dasharray:none;stroke-dashoffset:40;stroke-opacity:1;paint-order:normal"
         d="m 284.53223,253.19791 c -5.3618,0.29166 -8.17904,4.37372 -8.17904,4.37372 -0.22145,0.13038 1.97995,0.28628 3.95204,0.73205 1.80273,0.40748 3.37488,1.11255 3.92902,1.46527 2.4111,1.53474 3.03515,3.15313 2.74128,3.48188 -1.17492,1.31435 -0.51252,3.75076 0.94488,4.60785 1.19704,0.70397 3.87126,1.92551 6.77161,-1.21411 2.25164,-2.69598 2.00698,-6.88217 0.17453,-9.18556 -2.32949,-2.92817 -6.43398,-4.73449 -10.33432,-4.26112 z"
         sodipodi:nodetypes="ccsssscscc" />
    </clipPath>
    <clipPath
       clipPathUnits="userSpaceOnUse"
       id="clipPath39767-4-0-1-3-2-3">
      <path
         style="vector-effect:none;fill:#1894ea;fill-opacity:1;fill-rule:nonzero;stroke:#1763e1;stroke-width:0.713224;stroke-linecap:butt;stroke-linejoin:miter;stroke-miterlimit:98;stroke-dasharray:none;stroke-dashoffset:40;stroke-opacity:1;paint-order:normal"
         d="m 236.45105,-35.889583 c 6.41914,8.3e-5 11.6346,8.3e-5 20.0594,0 8.42511,8.3e-5 13.64049,8.3e-5 20.05947,0 9e-5,6.419143 9e-5,11.634605 0,20.059476 9e-5,8.4250376 9e-5,13.6404166 0,20.0593975 -6.41898,8.3e-5 -11.63436,8.3e-5 -20.05947,0 -8.4248,8.3e-5 -13.64026,8.3e-5 -20.0594,0 8e-5,-6.4189809 8e-5,-11.6343599 0,-20.0593975 8e-5,-8.424871 8e-5,-13.640333 0,-20.059476 z"
         id="path39769-5-7-0-5-9-5"
         inkscape:connector-curvature="0"
         sodipodi:nodetypes="ccccccccc" />
    </clipPath>
    <linearGradient
       inkscape:collect="always"
       xlink:href="#linearGradient9444"
       id="linearGradient150924"
       gradientUnits="userSpaceOnUse"
       gradientTransform="translate(-91.30482,-356.5317)"
       x1="96.121994"
       y1="367.16125"
       x2="95.62471"
       y2="367.16977" />
    <linearGradient
       inkscape:collect="always"
       id="linearGradient9444">
      <stop
         style="stop-color:#1894ea;stop-opacity:1;"
         offset="0"
         id="stop9440" />
      <stop
         style="stop-color:#1894ea;stop-opacity:0;"
         offset="1"
         id="stop9442" />
    </linearGradient>
    <clipPath
       clipPathUnits="userSpaceOnUse"
       id="clipPath4535">
      <path
         style="opacity:1;fill:#ffffff;fill-opacity:1;stroke:none;stroke-width:0.702256px;stroke-linecap:butt;stroke-linejoin:miter;stroke-opacity:1"
         d="m 100.69946,275.66577 1.21263,1.58425 -1.42911,1.10317 z"
         id="path4537" />
    </clipPath>
  </defs>
  <sodipodi:namedview
     id="namedview3588"
     bordercolor="#666666"
     inkscape:pageshadow="2"
     guidetolerance="10"
     pagecolor="#ffffff"
     gridtolerance="10"
     inkscape:window-maximized="1"
     inkscape:zoom="11.313708"
     objecttolerance="10"
     borderopacity="1"
     inkscape:current-layer="svg3558"
     inkscape:cx="33.234019"
     inkscape:cy="18.694136"
     inkscape:window-y="0"
     inkscape:window-x="0"
     inkscape:window-width="1920"
     showgrid="false"
     inkscape:pageopacity="0"
     inkscape:window-height="954"
     inkscape:pagecheckerboard="0"
     showguides="true"
     fit-margin-top="1"
     fit-margin-left="1"
     fit-margin-right="1"
     fit-margin-bottom="1"
     lock-margins="true" />
  <metadata
     id="metadata18">
    <rdf:RDF />
  </metadata>
  <g
     id="g6358">
    <path
       id="path150826"
       style="vector-effect:none;fill:#1894ea;fill-opacity:1;fill-rule:nonzero;stroke:#ffcbac;stroke-width:0.795338;stroke-linecap:round;stroke-linejoin:miter;stroke-miterlimit:98;stroke-dasharray:none;stroke-dashoffset:40;stroke-opacity:1;paint-order:normal"
       d="M 16.66705,1.8235812 C 5.9626096,3.5140012 1.3991296,12.155511 1.3991296,12.155511 c -0.14656,0.34882 3.91222,0.21949 7.96332,0.70805 3.7031904,0.4466 6.8752304,1.61973 8.0604204,2.21368 5.15686,2.58436 6.74323,5.70491 6.22098,6.42547 -0.53691,0.7408 -0.73516,1.61358 -0.79873,2.51366 -0.18362,2.60018 1.34047,5.48738 3.64521,6.54252 1.41635,0.64842 3.80773,1.49702 6.5265,0.99205 2.17283,-0.40357 4.57199,-1.63248 6.72287,-4.80767 3.96493,-5.87652 2.61112,-14.23045 -1.54242,-18.4772198 -5.28015,-5.39868 -13.71795,-7.94103004 -21.53023,-6.44251 z"
       sodipodi:nodetypes="ccsssssscscc" />
    <g
       id="g150846"
       transform="matrix(2.0076359,-0.20606344,0.20606344,2.0076359,-606.74489,-447.8739)"
       clip-path="url(#clipPath4324-3-5-3)"
       style="stroke-linecap:round">
      <path
         style="font-variation-settings:normal;fill:none;fill-opacity:1;stroke:#ffcbac;stroke-width:0.0828812;stroke-linecap:butt;stroke-linejoin:miter;stroke-miterlimit:4;stroke-dasharray:0.165762, 0.0828812;stroke-dashoffset:0;stroke-opacity:1;stop-color:#000000"
         d="m 291.31779,249.64914 v 22.14025"
         id="path150828" />
      <path
         style="font-variation-settings:normal;fill:none;fill-opacity:1;stroke:#ffcbac;stroke-width:0.0828812;stroke-linecap:butt;stroke-linejoin:miter;stroke-miterlimit:4;stroke-dasharray:0.165762, 0.0828812;stroke-dashoffset:0;stroke-opacity:1;stop-color:#000000"
         d="m 281.5421,249.64914 v 22.14025"
         id="path150830" />
      <path
         style="font-variation-settings:normal;fill:none;fill-opacity:1;stroke:#ffcbac;stroke-width:0.0828812;stroke-linecap:butt;stroke-linejoin:miter;stroke-miterlimit:4;stroke-dasharray:0.165762, 0.0828812;stroke-dashoffset:0;stroke-opacity:1;stop-color:#000000"
         d="m 286.42995,249.64914 v 22.14025"
         id="path150832" />
      <path
         style="font-variation-settings:normal;fill:none;fill-opacity:1;stroke:#ffcbac;stroke-width:0.0828812;stroke-linecap:butt;stroke-linejoin:miter;stroke-miterlimit:4;stroke-dasharray:0.165762, 0.0828812;stroke-dashoffset:0;stroke-opacity:1;stop-color:#000000"
         d="M 297.50007,265.60711 H 275.35982"
         id="path150834" />
      <path
         style="font-variation-settings:normal;fill:none;fill-opacity:1;stroke:#ffcbac;stroke-width:0.0828812;stroke-linecap:butt;stroke-linejoin:miter;stroke-miterlimit:4;stroke-dasharray:0.165762, 0.0828812;stroke-dashoffset:0;stroke-opacity:1;stop-color:#000000"
         d="M 297.50007,255.83142 H 275.35982"
         id="path150836" />
      <path
         style="font-variation-settings:normal;fill:none;fill-opacity:1;stroke:#ffcbac;stroke-width:0.0828812;stroke-linecap:butt;stroke-linejoin:miter;stroke-miterlimit:4;stroke-dasharray:0.165762, 0.0828812;stroke-dashoffset:0;stroke-opacity:1;stop-color:#000000"
         d="M 297.50007,260.71927 H 275.35982"
         id="path150838" />
      <path
         style="font-variation-settings:normal;fill:none;fill-opacity:1;stroke:#1763e1;stroke-width:0.15;stroke-linecap:butt;stroke-linejoin:miter;stroke-miterlimit:4;stroke-dasharray:0.15, 0.6;stroke-dashoffset:0;stroke-opacity:1;stop-color:#000000"
         d="M 276.5454,-33.522366 H 236.47556"
         id="path150840"
         clip-path="url(#clipPath39767-4-0-1-3-2-3)"
         transform="matrix(0.55254149,0,0,0.55254149,144.69725,269.46607)" />
      <path
         style="font-variation-settings:normal;fill:none;fill-opacity:1;stroke:#ffcbac;stroke-width:0.115725;stroke-linecap:butt;stroke-linejoin:miter;stroke-miterlimit:4;stroke-dasharray:0.0578627, 0.0578627;stroke-dashoffset:0;stroke-opacity:1;stop-color:#000000"
         d="m 295.71824,251.43096 -18.57659,18.5766"
         id="path150842" />
      <path
         style="font-variation-settings:normal;fill:none;fill-opacity:1;stroke:#ffcbac;stroke-width:0.115725;stroke-linecap:butt;stroke-linejoin:miter;stroke-miterlimit:4;stroke-dasharray:0.0578627, 0.0578627;stroke-dashoffset:0;stroke-opacity:1;stop-color:#000000"
         d="m 295.71824,270.00756 -18.57659,-18.5766"
         id="path150844" />
    </g>
    <path
       style="fill:#ffffff;fill-opacity:1;stroke:url(#linearGradient150924);stroke-width:1px;stroke-linecap:butt;stroke-linejoin:miter;stroke-opacity:1"
       d="m 5.1088996,8.7472802 0.0565,2.8403908 -2.57007,0.0616 z"
       id="path150848" />
    <g
       id="g150870"
       style="font-variation-settings:normal;vector-effect:none;fill:#1894ea;fill-opacity:1;stroke:#1894ea;stroke-width:0.5;stroke-linecap:butt;stroke-linejoin:miter;stroke-miterlimit:4;stroke-dasharray:none;stroke-dashoffset:0;stroke-opacity:1;-inkscape-stroke:none;stop-color:#000000"
       transform="matrix(1.1477358,0.84286797,-0.84286797,1.1477358,121.88237,-392.52053)"
       clip-path="url(#clipPath4535)">
      <g
         id="g150868">
        <g
           id="g150864"
           transform="matrix(0.06840727,2.1211996e-5,-2.1211996e-5,0.06840727,100.88971,262.04937)"
           style="font-variation-settings:normal;vector-effect:none;fill:#1894ea;fill-opacity:1;stroke:#1894ea;stroke-width:7.30916;stroke-linecap:butt;stroke-linejoin:miter;stroke-miterlimit:4;stroke-dasharray:none;stroke-dashoffset:0;stroke-opacity:1;-inkscape-stroke:none;stop-color:#000000;stop-opacity:1">
          <circle
             id="circle150850"
             style="font-variation-settings:normal;vector-effect:none;fill:#1894ea;fill-opacity:1;stroke:#1894ea;stroke-width:3.66191;stroke-linecap:butt;stroke-linejoin:miter;stroke-miterlimit:4;stroke-dasharray:none;stroke-dashoffset:0;stroke-opacity:1;-inkscape-stroke:none;stop-color:#000000;stop-opacity:1"
             cx="1"
             cy="102"
             transform="matrix(1.996,0,0,1.996,-1.4327,21.619)"
             r="0" />
          <path
             id="path150852"
             style="font-variation-settings:normal;vector-effect:none;fill:#1894ea;fill-opacity:1;stroke:#1894ea;stroke-width:7.30916;stroke-linecap:butt;stroke-linejoin:miter;stroke-miterlimit:4;stroke-dasharray:none;stroke-dashoffset:0;stroke-opacity:1;-inkscape-stroke:none;stop-color:#000000;stop-opacity:1"
             d="m 233.83,166.9 a 4.2639,4.2639 0 0 0 -4.2635,4.2639" />
          <path
             id="path150854"
             style="font-variation-settings:normal;vector-effect:none;fill:#1894ea;fill-opacity:1;stroke:#1894ea;stroke-width:7.30916;stroke-linecap:butt;stroke-linejoin:miter;stroke-miterlimit:4;stroke-dasharray:none;stroke-dashoffset:0;stroke-opacity:1;-inkscape-stroke:none;stop-color:#000000;stop-opacity:1"
             d="m 236.44,169.51 a 2.613,2.613 0 0 0 -2.6128,-2.613" />
          <path
             id="path150856"
             style="font-variation-settings:normal;vector-effect:none;fill:#1894ea;fill-opacity:1;stroke:#1894ea;stroke-width:7.30916;stroke-linecap:butt;stroke-linejoin:miter;stroke-miterlimit:4;stroke-dasharray:none;stroke-dashoffset:0;stroke-opacity:1;-inkscape-stroke:none;stop-color:#000000;stop-opacity:1"
             d="m 234.79,171.16 a 1.6509,1.6509 0 0 0 1.6507,-1.6509" />
          <path
             id="path150858"
             style="font-variation-settings:normal;vector-effect:none;fill:#1894ea;fill-opacity:1;stroke:#1894ea;stroke-width:7.30916;stroke-linecap:butt;stroke-linejoin:miter;stroke-miterlimit:4;stroke-dasharray:none;stroke-dashoffset:0;stroke-opacity:1;-inkscape-stroke:none;stop-color:#000000;stop-opacity:1"
             d="m 233.83,170.2 a 0.96205,0.96205 0 0 0 0.96209,0.96209" />
          <path
             id="path150860"
             style="font-variation-settings:normal;vector-effect:none;fill:#1894ea;fill-opacity:1;stroke:#1894ea;stroke-width:7.30916;stroke-linecap:butt;stroke-linejoin:miter;stroke-miterlimit:4;stroke-dasharray:none;stroke-dashoffset:0;stroke-opacity:1;-inkscape-stroke:none;stop-color:#000000;stop-opacity:1"
             d="m 236.09386,171.04407 c -0.38034,1.4e-4 -0.61565,-0.79264 -2.26249,-0.84524"
             sodipodi:nodetypes="cc" />
          <path
             id="path150862"
             style="font-variation-settings:normal;vector-effect:none;fill:#1894ea;fill-opacity:1;stroke:#1894ea;stroke-width:7.30916;stroke-linecap:round;stroke-linejoin:round;stroke-miterlimit:4;stroke-dasharray:none;stroke-dashoffset:0;stroke-opacity:1;-inkscape-stroke:none;stop-color:#000000;stop-opacity:1"
             d="M 199.7801,25.883394 C 89.409893,25.883394 2.60833,117.79247 -0.06990452,225.72339"
             sodipodi:nodetypes="cc" />
        </g>
        <path
           style="font-variation-settings:normal;vector-effect:none;fill:#1894ea;fill-opacity:1;stroke:#1894ea;stroke-width:0.5;stroke-linecap:butt;stroke-linejoin:round;stroke-miterlimit:4;stroke-dasharray:none;stroke-dashoffset:0;stroke-opacity:1;-inkscape-stroke:none;stop-color:#000000;stop-opacity:1"
           d="m 100.92323,277.45523 c 0,0 7.59567,-5.94509 13.74975,-5.33839"
           id="path150866"
           sodipodi:nodetypes="cc" />
      </g>
    </g>
    <rect
       style="fill:#ffcbac;stroke:none;stroke-width:0.795338;stroke-linecap:round;stroke-miterlimit:98;stroke-dashoffset:40;stroke-opacity:0.946086;-inkscape-stroke:none;stop-color:#000000;fill-opacity:1"
       id="rect1650"
       width="0.36308289"
       height="0.4078064"
       x="23.953293"
       y="21.035187" />
    <g
       id="g150922"
       transform="matrix(2.0076359,-0.20606344,0.20606344,2.0076359,-603.39247,-440.77681)"
       style="stroke-linecap:round">
      <g
         id="g150918"
         style="font-variation-settings:normal;vector-effect:none;fill:none;fill-opacity:1;stroke:#ffffff;stroke-width:0.5;stroke-linecap:butt;stroke-linejoin:miter;stroke-miterlimit:4;stroke-dasharray:none;stroke-dashoffset:0;stroke-opacity:1;-inkscape-stroke:none;stop-color:#000000"
         transform="matrix(0.63807142,0.57761319,-0.57761319,0.63807142,371.47259,18.39261)">
        <g
           id="g150900"
           transform="matrix(0.06840727,2.1211996e-5,-2.1211996e-5,0.06840727,100.88971,262.04937)"
           style="font-variation-settings:normal;vector-effect:none;fill:none;fill-opacity:1;stroke:#ffffff;stroke-width:7.30916;stroke-linecap:butt;stroke-linejoin:miter;stroke-miterlimit:4;stroke-dasharray:none;stroke-dashoffset:0;stroke-opacity:1;-inkscape-stroke:none;stop-color:#000000;stop-opacity:1">
          <path
             id="path150872"
             style="font-variation-settings:normal;vector-effect:none;fill:none;fill-opacity:1;stroke:#ffffff;stroke-width:7.30916;stroke-linecap:round;stroke-linejoin:round;stroke-miterlimit:4;stroke-dasharray:none;stroke-dashoffset:0;stroke-opacity:1;-inkscape-stroke:none;stop-color:#000000;stop-opacity:1"
             d="M 200.41,25.368 C 89.719635,25.255581 -2.5356878,113.74887 0.56,225.208"
             sodipodi:nodetypes="cc" />
          <path
             id="path150874"
             style="font-variation-settings:normal;vector-effect:none;fill:none;fill-opacity:1;stroke:#ffffff;stroke-width:7.30916;stroke-linecap:butt;stroke-linejoin:miter;stroke-miterlimit:4;stroke-dasharray:none;stroke-dashoffset:0;stroke-opacity:1;-inkscape-stroke:none;stop-color:#000000;stop-opacity:1"
             d="M 323.92,148.88 A 123.51,123.51 0 0 0 200.41,25.37" />
          <path
             id="path150876"
             style="font-variation-settings:normal;vector-effect:none;fill:none;fill-opacity:1;stroke:#ffffff;stroke-width:7.30916;stroke-linecap:butt;stroke-linejoin:miter;stroke-miterlimit:4;stroke-dasharray:none;stroke-dashoffset:0;stroke-opacity:1;-inkscape-stroke:none;stop-color:#000000;stop-opacity:1"
             d="m 247.59,225.21 c 21.07914,-2.7e-4 40.16263,-8.54446 53.97635,-22.35835 13.81372,-13.8139 22.35765,-32.89751 22.35765,-53.97665"
             sodipodi:nodetypes="csc" />
          <path
             id="path150878"
             style="font-variation-settings:normal;vector-effect:none;fill:none;fill-opacity:1;stroke:#ffffff;stroke-width:7.30916;stroke-linecap:butt;stroke-linejoin:miter;stroke-miterlimit:4;stroke-dasharray:none;stroke-dashoffset:0;stroke-opacity:1;-inkscape-stroke:none;stop-color:#000000;stop-opacity:1"
             d="m 200.41,178.04 c 0,26.05459 21.12141,47.176 47.176,47.176"
             sodipodi:nodetypes="cc" />
          <path
             id="path150880"
             style="font-variation-settings:normal;vector-effect:none;fill:none;fill-opacity:1;stroke:#ffffff;stroke-width:7.30916;stroke-linecap:butt;stroke-linejoin:miter;stroke-miterlimit:4;stroke-dasharray:none;stroke-dashoffset:0;stroke-opacity:1;-inkscape-stroke:none;stop-color:#000000;stop-opacity:1"
             d="m 229.57,148.88 a 29.159,29.159 0 0 0 -29.158,29.159" />
          <path
             id="path150882"
             style="font-variation-settings:normal;vector-effect:none;fill:none;fill-opacity:1;stroke:#ffffff;stroke-width:7.30916;stroke-linecap:butt;stroke-linejoin:miter;stroke-miterlimit:4;stroke-dasharray:none;stroke-dashoffset:0;stroke-opacity:1;-inkscape-stroke:none;stop-color:#000000;stop-opacity:1"
             d="M 247.59,166.9 A 18.018,18.018 0 0 0 229.57,148.88" />
          <circle
             id="circle150884"
             style="font-variation-settings:normal;vector-effect:none;fill:none;fill-opacity:1;stroke:#ffffff;stroke-width:3.66191;stroke-linecap:butt;stroke-linejoin:miter;stroke-miterlimit:4;stroke-dasharray:none;stroke-dashoffset:0;stroke-opacity:1;-inkscape-stroke:none;stop-color:#000000;stop-opacity:1"
             cx="1"
             cy="102"
             transform="matrix(1.996,0,0,1.996,-1.4327,21.619)"
             r="0" />
          <path
             id="path150886"
             style="font-variation-settings:normal;vector-effect:none;fill:none;fill-opacity:1;stroke:#ffffff;stroke-width:7.30916;stroke-linecap:butt;stroke-linejoin:miter;stroke-miterlimit:4;stroke-dasharray:none;stroke-dashoffset:0;stroke-opacity:1;-inkscape-stroke:none;stop-color:#000000;stop-opacity:1"
             d="m 236.44,178.04 a 11.141,11.141 0 0 0 11.142,-11.141" />
          <path
             id="path150888"
             style="font-variation-settings:normal;vector-effect:none;fill:none;fill-opacity:1;stroke:#ffffff;stroke-width:7.30916;stroke-linecap:butt;stroke-linejoin:miter;stroke-miterlimit:4;stroke-dasharray:none;stroke-dashoffset:0;stroke-opacity:1;-inkscape-stroke:none;stop-color:#000000;stop-opacity:1"
             d="m 229.57,171.16 a 6.8769,6.8769 0 0 0 6.8763,6.8769" />
          <path
             id="path150890"
             style="font-variation-settings:normal;vector-effect:none;fill:none;fill-opacity:1;stroke:#ffffff;stroke-width:7.30916;stroke-linecap:butt;stroke-linejoin:miter;stroke-miterlimit:4;stroke-dasharray:none;stroke-dashoffset:0;stroke-opacity:1;-inkscape-stroke:none;stop-color:#000000;stop-opacity:1"
             d="m 233.83,166.9 a 4.2639,4.2639 0 0 0 -4.2635,4.2639" />
          <path
             id="path150892"
             style="font-variation-settings:normal;vector-effect:none;fill:none;fill-opacity:1;stroke:#ffffff;stroke-width:7.30916;stroke-linecap:butt;stroke-linejoin:miter;stroke-miterlimit:4;stroke-dasharray:none;stroke-dashoffset:0;stroke-opacity:1;-inkscape-stroke:none;stop-color:#000000;stop-opacity:1"
             d="m 236.44,169.51 a 2.613,2.613 0 0 0 -2.6128,-2.613" />
          <path
             id="path150894"
             style="font-variation-settings:normal;vector-effect:none;fill:none;fill-opacity:1;stroke:#ffffff;stroke-width:7.30916;stroke-linecap:butt;stroke-linejoin:miter;stroke-miterlimit:4;stroke-dasharray:none;stroke-dashoffset:0;stroke-opacity:1;-inkscape-stroke:none;stop-color:#000000;stop-opacity:1"
             d="m 234.79,171.16 a 1.6509,1.6509 0 0 0 1.6507,-1.6509" />
          <path
             id="path150896"
             style="font-variation-settings:normal;vector-effect:none;fill:none;fill-opacity:1;stroke:#ffffff;stroke-width:7.30916;stroke-linecap:butt;stroke-linejoin:miter;stroke-miterlimit:4;stroke-dasharray:none;stroke-dashoffset:0;stroke-opacity:1;-inkscape-stroke:none;stop-color:#000000;stop-opacity:1"
             d="m 233.83,170.2 a 0.96205,0.96205 0 0 0 0.96209,0.96209" />
          <path
             id="path150898"
             style="font-variation-settings:normal;vector-effect:none;fill:none;fill-opacity:1;stroke:#ffffff;stroke-width:7.30916;stroke-linecap:butt;stroke-linejoin:miter;stroke-miterlimit:4;stroke-dasharray:none;stroke-dashoffset:0;stroke-opacity:1;-inkscape-stroke:none;stop-color:#000000;stop-opacity:1"
             d="m 236.09386,171.04407 c -0.38034,1.4e-4 -0.61565,-0.79264 -2.26249,-0.84524"
             sodipodi:nodetypes="cc" />
        </g>
        <path
           style="font-variation-settings:normal;vector-effect:none;fill:none;fill-opacity:1;stroke:#ffffff;stroke-width:0.5;stroke-linecap:butt;stroke-linejoin:round;stroke-miterlimit:4;stroke-dasharray:none;stroke-dashoffset:0;stroke-opacity:1;-inkscape-stroke:none;stop-color:#000000;stop-opacity:1"
           d="m 100.92323,277.45523 c 0,0 4.61527,-3.85051 9.22644,-4.22836 1.53623,-0.12588 3.08607,0.0684 4.44589,1.00591"
           id="path150902"
           sodipodi:nodetypes="csc" />
        <path
           style="font-variation-settings:normal;vector-effect:none;fill:none;fill-opacity:1;stroke:#ffffff;stroke-width:0.5;stroke-linecap:butt;stroke-linejoin:miter;stroke-miterlimit:4;stroke-dasharray:none;stroke-dashoffset:0;stroke-opacity:1;-inkscape-stroke:none;stop-color:#000000;stop-opacity:1"
           d="m 115.76149,263.88521 c 0,0 3.80962,3.94049 1.52955,8.54127"
           id="path150904"
           sodipodi:nodetypes="cc" />
        <path
           style="font-variation-settings:normal;vector-effect:none;fill:none;fill-opacity:1;stroke:#ffffff;stroke-width:0.5;stroke-linecap:butt;stroke-linejoin:miter;stroke-miterlimit:4;stroke-dasharray:none;stroke-dashoffset:0;stroke-opacity:1;-inkscape-stroke:none;stop-color:#000000;stop-opacity:1"
           d="m 121.84263,275.68216 c 0,0 -0.0165,8e-4 -0.0464,0.008 -0.3946,0.0949 -3.36109,0.44731 -4.73571,-1.45636"
           id="path150906"
           sodipodi:nodetypes="csc" />
        <path
           style="font-variation-settings:normal;vector-effect:none;fill:none;fill-opacity:1;stroke:#ffffff;stroke-width:0.5;stroke-linecap:butt;stroke-linejoin:miter;stroke-miterlimit:4;stroke-dasharray:none;stroke-dashoffset:0;stroke-opacity:1;-inkscape-stroke:none;stop-color:#000000;stop-opacity:1"
           d="m 120.90862,266.59759 c 0,0 2.13669,5.64278 -3.08549,6.87421"
           id="path150908"
           sodipodi:nodetypes="cc" />
        <path
           style="font-variation-settings:normal;vector-effect:none;fill:none;fill-opacity:1;stroke:#ffffff;stroke-width:0.5;stroke-linecap:butt;stroke-linejoin:miter;stroke-miterlimit:4;stroke-dasharray:none;stroke-dashoffset:0;stroke-opacity:1;-inkscape-stroke:none;stop-color:#000000;stop-opacity:1"
           d="m 123.03195,271.68567 c 0,0 -1.07306,3.16241 -5.44036,2.26433"
           id="path150910"
           sodipodi:nodetypes="cc" />
        <path
           style="font-variation-settings:normal;vector-effect:none;fill:none;fill-opacity:1;stroke:#ffffff;stroke-width:0.5;stroke-linecap:butt;stroke-linejoin:miter;stroke-miterlimit:4;stroke-dasharray:none;stroke-dashoffset:0;stroke-opacity:1;-inkscape-stroke:none;stop-color:#000000;stop-opacity:1"
           d="m 118.82324,277.37125 c 0,0 -2.15609,0.0675 -2.23314,-3.60816"
           id="path150912"
           sodipodi:nodetypes="cc" />
        <path
           style="font-variation-settings:normal;vector-effect:none;fill:none;fill-opacity:1;stroke:#ffffff;stroke-width:0.5;stroke-linecap:butt;stroke-linejoin:miter;stroke-miterlimit:4;stroke-dasharray:none;stroke-dashoffset:0;stroke-opacity:1;-inkscape-stroke:none;stop-color:#000000;stop-opacity:1"
           d="m 116.10477,276.97345 c 0,0 -0.71897,-2.30309 0.59778,-3.43199"
           id="path150914"
           sodipodi:nodetypes="cc" />
        <path
           style="font-variation-settings:normal;vector-effect:none;fill:none;fill-opacity:1;stroke:#ffffff;stroke-width:0.5;stroke-linecap:butt;stroke-linejoin:miter;stroke-miterlimit:4;stroke-dasharray:none;stroke-dashoffset:0;stroke-opacity:1;-inkscape-stroke:none;stop-color:#000000;stop-opacity:1"
           d="m 106.74525,266.27232 c 0,0 7.15473,-0.10192 8.53415,6.50497"
           id="path150916"
           sodipodi:nodetypes="cc" />
      </g>
      <circle
         style="font-variation-settings:normal;opacity:1;fill:#ffffff;fill-opacity:1;stroke:none;stroke-width:0.10795;stroke-linecap:butt;stroke-linejoin:round;stroke-miterlimit:4;stroke-dasharray:none;stroke-dashoffset:0;stroke-opacity:1;stop-color:#000000;stop-opacity:1"
         id="circle150920"
         cx="287.97318"
         cy="260.49557"
         r="0.35179901" />
    </g>
  </g>
</svg>
